<svg width="40" height="48" viewBox="0 0 40 48" fill="none" xmlns="http://www.w3.org/2000/svg">
<path d="M19.6007 4.95239C16.134 4.95239 13.334 7.71836 13.334 11.1429C13.334 14.5411 16.134 17.307 19.574 17.3333C18.7206 17.307 18.054 16.6221 18.054 15.7791C18.054 14.9362 18.7473 14.225 19.6273 14.225C23.3606 14.225 31.654 14.2249 35.3073 14.2249C37.894 14.2249 40.0007 12.1439 40.0007 9.5887C40.0007 7.03344 37.894 4.95239 35.3073 4.95239L19.6007 4.95239Z" fill="#19B8AB"/>
<path d="M11.9815 17.3333C8.51484 17.3333 5.71484 20.0992 5.71484 23.5237C5.71484 26.9219 8.51484 29.6878 11.9548 29.7142C11.1015 29.6878 10.4348 29.003 10.4348 28.16C10.4348 27.317 11.1282 26.6058 12.0082 26.6058C15.7415 26.6058 24.0349 26.6058 27.6882 26.6058C30.2748 26.6058 32.3815 24.5248 32.3815 21.9696C32.3815 19.4143 30.2748 17.3333 27.6882 17.3333L11.9815 17.3333Z" fill="#21BAC8"/>
<path d="M6.71429 29.7144C3 29.7144 -1.08238e-07 32.6931 0 36.381C1.07406e-07 40.0406 3 43.0193 6.68569 43.0477C5.77142 43.0193 5.05714 42.2818 5.05714 41.3739C5.05714 40.4661 5.80002 39.7002 6.74288 39.7002C10.7428 39.7002 19.6286 39.7002 23.5429 39.7002C26.3143 39.7002 28.5714 37.4591 28.5714 34.7073C28.5714 31.9555 26.3143 29.7144 23.5429 29.7144L6.71429 29.7144Z" fill="#23D4D4"/>
</svg>
